HIERARCHY
ROOT RootJoint
{
    OFFSET   0.000000   0.000000   0.000000
    CHANNELS 6 Xposition Yposition Zposition Xrotation Yrotation Zrotation
    JOINT pelvis_lowerback
    {
        OFFSET   0.000000   0.093605   0.000000
        CHANNELS 3 Xrotation Yrotation Zrotation
        JOINT lowerback_torso
        {
            OFFSET   0.000000   0.100000   0.000000
            CHANNELS 3 Xrotation Yrotation Zrotation
            JOINT torso_head
            {
                OFFSET   0.000000   0.282350   0.000000
                CHANNELS 3 Xrotation Yrotation Zrotation
                End Site
                {
                    OFFSET   0.000000   0.192650   0.000000
                }
            }
            JOINT rTorso_Clavicle
            {
                OFFSET  -0.001000   0.157500   0.000000
                CHANNELS 3 Xrotation Yrotation Zrotation
                JOINT rShoulder
                {
                    OFFSET  -0.117647   0.000000   0.000000
                    CHANNELS 3 Xrotation Yrotation Zrotation
                    JOINT rElbow
                    {
                        OFFSET  -0.245000   0.000000   0.000000
                        CHANNELS 3 Xrotation Yrotation Zrotation
                        JOINT rWrist
                        {
                            OFFSET  -0.240000   0.000000   0.000000
                            CHANNELS 3 Xrotation Yrotation Zrotation
                            End Site
                            {
                                OFFSET  -0.116353  -0.002500   0.000000
                            }
                        }
                    }
                }
            }
            JOINT lTorso_Clavicle
            {
                OFFSET   0.001000   0.157500   0.000000
                CHANNELS 3 Xrotation Yrotation Zrotation
                JOINT lShoulder
                {
                    OFFSET   0.117647   0.000000   0.000000
                    CHANNELS 3 Xrotation Yrotation Zrotation
                    JOINT lElbow
                    {
                        OFFSET   0.245000   0.000000   0.000000
                        CHANNELS 3 Xrotation Yrotation Zrotation
                        JOINT lWrist
                        {
                            OFFSET   0.240000   0.000000   0.000000
                            CHANNELS 3 Xrotation Yrotation Zrotation
                            End Site
                            {
                                OFFSET   0.116353  -0.002500   0.000000
                            }
                        }
                    }
                }
            }
        }
    }
    JOINT rHip
    {
        OFFSET  -0.100000  -0.051395   0.000000
        CHANNELS 3 Xrotation Yrotation Zrotation
        JOINT rKnee
        {
            OFFSET   0.000000  -0.410000   0.000000
            CHANNELS 3 Xrotation Yrotation Zrotation
            JOINT rAnkle
            {
                OFFSET   0.000000  -0.390000   0.000000
                CHANNELS 3 Xrotation Yrotation Zrotation
                JOINT rToeJoint
                {
                    OFFSET   0.000000  -0.050000   0.130000
                    CHANNELS 3 Xrotation Yrotation Zrotation
                    End Site
                    {
                        OFFSET  -0.010000   0.002000   0.060000
                    }
                }
            }
        }
    }
    JOINT lHip
    {
        OFFSET   0.100000  -0.051395   0.000000
        CHANNELS 3 Xrotation Yrotation Zrotation
        JOINT lKnee
        {
            OFFSET   0.000000  -0.410000   0.000000
            CHANNELS 3 Xrotation Yrotation Zrotation
            JOINT lAnkle
            {
                OFFSET   0.000000  -0.390000   0.000000
                CHANNELS 3 Xrotation Yrotation Zrotation
                JOINT lToeJoint
                {
                    OFFSET   0.000000  -0.050000   0.130000
                    CHANNELS 3 Xrotation Yrotation Zrotation
                    End Site
                    {
                        OFFSET   0.010000   0.002000   0.060000
                    }
                }
            }
        }
    }
}
MOTION
Frames: 17
Frame Time:   0.008333
 -2.314489   0.905346   4.904432 -174.545783  -6.445344 -179.978996   5.465583  -2.648186  -1.640964  -0.342497  -5.074881  -1.628572  -0.747373  -1.168357   0.198553   1.518815  -5.611844   2.724159   3.911363   0.876199  42.753132  -0.000272  72.222840  -0.000296  -0.297474   3.215092  -9.156815   1.342729   1.128243  -6.852210  -7.536395  -5.758375 -53.110344   0.083506 -82.125528   0.079052  -2.928453  -4.165614  11.438860  -5.788364  -2.893700  -2.809861  22.470680  -0.001441   0.000289 -11.246625  -4.904095  -1.449730   0.149466   0.000124  -0.000026  -7.622132  -1.681892   9.927230  44.265676   0.043916   0.007703 -13.754622   3.745115  -1.212560  -3.055691   0.002193   0.004676
 -2.312650   0.904665   4.905168 -174.379937  -6.436608 179.845124   5.615910  -2.623597  -1.527457  -0.254810  -5.081838  -1.496818  -0.667626  -1.148633   0.276988   1.523396  -5.489916   2.872046   3.818764   1.088393  42.956202   0.000462  72.297183  -0.000688  -0.280844   3.215552  -9.313094   1.341739   1.069916  -6.873675  -7.860579  -5.343810 -52.796559   0.077455 -81.628323   0.072512  -2.991841  -4.112758  11.544379  -5.810365  -2.918360  -2.501190  22.760124  -0.001463   0.000305 -11.318652  -4.905074  -1.401096   0.108787   0.000161  -0.000021  -7.768971  -1.040278   9.599508  45.743826   0.046404   0.006846 -13.967741   4.102694  -1.239123  -2.930261   0.002538   0.004570
 -2.310948   0.903947   4.905942 -174.221111  -6.457020 179.661353   5.756953  -2.612824  -1.401712  -0.167460  -5.097806  -1.351551  -0.586973  -1.130329   0.348992   1.536342  -5.370840   3.031809   3.740145   1.296683  43.164079   0.001125  72.373713  -0.001050  -0.256438   3.259884  -9.402217   1.315671   1.005190  -6.875581  -8.187016  -4.959183 -52.482829   0.071562 -81.159494   0.066170  -3.055350  -4.041916  11.691505  -5.839117  -2.960018  -2.195218  23.052891  -0.001454   0.000345 -11.393726  -4.918294  -1.350524   0.069732   0.000185  -0.000018  -7.877682  -0.406069   9.251545  47.168980   0.048362   0.005676 -14.162890   4.437045  -1.263453  -2.803475   0.002858   0.004446
 -2.309371   0.903207   4.906751 -174.080072  -6.500678 179.464204   5.882930  -2.608357  -1.263153  -0.088956  -5.118571  -1.191709  -0.510746  -1.113385   0.416854   1.553937  -5.259172   3.197071   3.671534   1.493229  43.369076   0.001617  72.444831  -0.001309  -0.232244   3.309418  -9.453293   1.279019   0.939874  -6.866350  -8.504257  -4.604853 -52.181424   0.065715 -80.724425   0.060023  -3.113996  -3.984404  11.851874  -5.879237  -3.015458  -1.885709  23.334360  -0.001412   0.000395 -11.463482  -4.942091  -1.300863   0.032661   0.000199  -0.000015  -7.951105   0.202995   8.892555  48.512378   0.049370   0.004165 -14.344228   4.748882  -1.285194  -2.686002   0.003069   0.004224
 -2.307907   0.902455   4.907600 -173.957447  -6.563882 179.254966   5.995181  -2.607478  -1.114990  -0.019646  -5.141701  -1.021281  -0.439896  -1.097579   0.481592   1.574403  -5.155058   3.363122   3.610874   1.677325  43.568153   0.001954  72.510061  -0.001478  -0.210059   3.353248  -9.482683   1.237107   0.875817  -6.850446  -8.808743  -4.278054 -51.894609   0.060049 -80.320974   0.054219  -3.167252  -3.944230  12.014798  -5.931003  -3.082850  -1.573209  23.601824  -0.001345   0.000446 -11.525613  -4.974654  -1.252521  -0.002497   0.000204  -0.000012  -7.993964   0.784477   8.528116  49.771964   0.049469   0.002508 -14.513010   5.039668  -1.304555  -2.577464   0.003185   0.003939
 -2.306542   0.901695   4.908495 -173.851524  -6.644072 179.036302   6.096112  -2.608731  -0.961218   0.041992  -5.165732  -0.844742  -0.374218  -1.082795   0.543479   1.596480  -5.057921   3.526941   3.556638   1.849462  43.759702   0.002165  72.569869  -0.001577  -0.189986   3.390077  -9.498068   1.192600   0.813891  -6.830256  -9.099142  -3.976214 -51.622759   0.054661 -79.946536   0.048841  -3.215729  -3.918684  12.176534  -5.993342  -3.160728  -1.259582  23.855152  -0.001262   0.000493 -11.579432  -5.014774  -1.205722  -0.035826   0.000204  -0.000010  -8.010695   1.338179   8.162584  50.951252   0.048797   0.000873 -14.670165   5.310838  -1.321790  -2.477218   0.003221   0.003620
 -2.305267   0.900934   4.909439 -173.760194  -6.739099 178.810975   6.187956  -2.611088  -0.805634   0.097588  -5.189647  -0.666129  -0.313262  -1.068949   0.602522   1.619274  -4.967125   3.686513   3.507679   2.010362  43.942811   0.002277  72.624830  -0.001625  -0.171753   3.420846  -9.503686   1.147143   0.754592  -6.807327  -9.374954  -3.697070 -51.365718   0.049606 -79.598730   0.043921  -3.260118  -3.904569  12.335456  -6.064878  -3.247758  -0.946866  24.094789  -0.001171   0.000534 -11.624735  -5.061475  -1.160640  -0.067400   0.000200  -0.000008  -8.005336   1.864338   7.799718  52.054782   0.047503  -0.000628 -14.816515   5.563740  -1.337132  -2.384694   0.003192   0.003288
 -2.304164   0.900287   4.910334 -173.629342  -6.906292 178.652623   6.281257  -2.636065  -0.688222   0.175548  -5.226785  -0.511495  -0.204613  -1.018775   0.638027   1.688834  -4.877517   3.828200   3.658415   2.269267  44.155242   0.004511  72.779105  -0.003519  -0.142405   3.419953  -9.652613   1.081022   0.636621  -6.820707  -9.808001  -3.426480 -51.002743   0.047646 -79.238587   0.041845  -3.335683  -3.786286  12.422146  -6.069455  -3.348979  -0.710390  24.308644  -0.001026   0.000633 -11.668299  -5.156595  -1.079418  -0.102959   0.000206  -0.000007  -7.863817   2.489817   7.369054  52.945882   0.045689  -0.000931 -14.918867   5.820743  -1.336843  -2.227582   0.003695   0.003443
 -2.303219   0.899584   4.911217 -173.514225  -7.139642 178.517553   6.351281  -2.681513  -0.576945   0.239564  -5.284836  -0.357258  -0.098613  -0.969869   0.666568   1.777861  -4.800539   3.972846   3.820941   2.515703  44.371190   0.006334  72.929656  -0.005056  -0.106770   3.450817  -9.694138   0.979156   0.506701  -6.804419 -10.250065  -3.189593 -50.645297   0.045619 -78.909619   0.039734  -3.404046  -3.693566  12.549610  -6.090848  -3.479888  -0.508734  24.514258  -0.000877   0.000758 -11.542073  -5.285077  -1.031790  -1.077271   0.000933  -0.000027  -7.686128   3.109008   6.909176  53.769820   0.043917  -0.000970 -15.014651   6.060175  -1.336954  -2.081093   0.004056   0.003526
 -2.302400   0.898964   4.912164 -173.429294  -7.395901 178.356684   6.403116  -2.729354  -0.437772   0.284427  -5.348539  -0.185788  -0.001853  -0.923613   0.692807   1.867990  -4.728706   4.124790   3.978544   2.746633  44.580209   0.007551  73.066653  -0.006062  -0.073710   3.473371  -9.694234   0.863809   0.373901  -6.781389 -10.682035  -2.978777 -50.304107   0.043182 -78.607729   0.037308  -3.461980  -3.640105  12.699217  -6.118058  -3.624094  -0.293417  24.705283  -0.000732   0.000855 -11.619231  -5.425455  -0.954135  -0.917168   0.000568  -0.000028  -7.492417   3.701556   6.469163  54.537063   0.041957  -0.001059 -15.103506   6.283484  -1.336996  -1.943997   0.004271   0.003505
 -2.301706   0.898379   4.913186 -173.369829  -7.660627 178.191568   6.440500  -2.777115  -0.293568   0.314986  -5.412555  -0.005151   0.087012  -0.880246   0.718552   1.955374  -4.660201   4.275912   4.127973   2.964674  44.781890   0.008325  73.194087  -0.006692  -0.043284   3.490527  -9.673525   0.743532   0.243710  -6.747566 -11.097739  -2.789750 -49.978999   0.040429 -78.331102   0.034646  -3.511405  -3.618432  12.856499  -6.159482  -3.774010  -0.084843  24.863188  -0.000599   0.000889 -11.669083  -5.568030  -0.884282  -0.791346   0.000332  -0.000025  -7.282922   4.266029   6.030259  55.257140   0.039842  -0.001231 -15.186100   6.491676  -1.336864  -1.817532   0.004348   0.003387
 -2.301126   0.897816   4.914284 -173.329844  -7.930917 178.024762   6.468304  -2.824129  -0.146220   0.335901  -5.475155   0.179466   0.169020  -0.839730   0.743628   2.038329  -4.594724   4.422823   4.268098   3.170248  44.973906   0.008750  73.312872  -0.007040  -0.014735   3.505351  -9.642314   0.622677   0.118189  -6.706644 -11.494562  -2.619061 -49.669982   0.037525 -78.076597   0.031907  -3.553985  -3.619799  13.015925  -6.215861  -3.927080   0.115149  25.001554  -0.000480   0.000891 -11.699696  -5.712226  -0.820957  -0.692577   0.000182  -0.000022  -7.059034   4.801183   5.597417  55.935099   0.037623  -0.001429 -15.262810   6.685740  -1.336550  -1.700980   0.004314   0.003207
 -2.300648   0.897270   4.915456 -173.305155  -8.205432 177.857751   6.489571  -2.869632   0.002133   0.350515  -5.535388   0.364600   0.245008  -0.801906   0.768039   2.116417  -4.532370   4.563853   4.398915   3.363686  45.155385   0.008908  73.423615  -0.007175   0.012290   3.518847  -9.605923   0.504084  -0.001596  -6.661727 -11.871151  -2.464117 -49.377308   0.034597 -77.841690   0.029203  -3.591220  -3.637137  13.174563  -6.285622  -4.082412   0.305860  25.126017  -0.000378   0.000874 -11.715002  -5.857558  -0.763174  -0.615129   0.000089  -0.000018  -6.823680   5.306632   5.175751  56.573646   0.035339  -0.001605 -15.334028   6.866686  -1.336049  -1.593517   0.004196   0.002992
 -2.300340   0.896935   4.916535 -173.259246  -8.548788 177.773586   6.472502  -2.934235   0.101703   0.399404  -5.595174   0.501510   0.371063  -0.686481   0.745109   2.208149  -4.478995   4.668758   4.758440   3.638786  45.354364   0.012043  73.623818  -0.010112   0.048831   3.496536  -9.651467   0.367448  -0.197192  -6.620103 -12.428147  -2.348347 -49.020961   0.034242 -77.564476   0.028790  -3.684903  -3.514754  13.259411  -6.288574  -4.258442   0.401778  25.187505  -0.000285   0.000795 -11.708206  -6.037251  -0.671015  -0.560518   0.000025  -0.000015  -6.326074   5.829057   4.665748  56.580056   0.028327  -0.001255 -15.371230   7.045708  -1.259085  -1.402966   0.004666   0.003199
 -2.300134   0.896642   4.917728 -173.257767  -8.951310 177.689791   6.433830  -3.019343   0.205892   0.421380  -5.677988   0.636724   0.490029  -0.574083   0.716076   2.314539  -4.433265   4.767916   5.112892   3.901031  45.549055   0.014444  73.816798  -0.012389   0.090946   3.502479  -9.594168   0.188981  -0.412876  -6.547459 -12.994875  -2.267194 -48.671600   0.033254 -77.316281   0.027822  -3.769889  -3.424092  13.382138  -6.323381  -4.462730   0.483828  25.221384  -0.000214   0.000697 -11.684011  -6.247356  -0.587690  -0.008892  -0.000367  -0.000012  -5.822818   6.324975   4.170582  56.469476   0.021712  -0.000997 -15.409585   7.211891  -1.187225  -1.220708   0.005001   0.003379
 -2.300038   0.896364   4.919036 -173.284518  -9.374797 177.602335   6.387828  -3.111631   0.315523   0.424820  -5.771477   0.776955   0.599892  -0.468570   0.686985   2.417910  -4.390444   4.862143   5.446783   4.147897  45.731822   0.015970  73.997143  -0.013858   0.132212   3.512230  -9.506013  -0.006113  -0.632840  -6.457751 -13.550165  -2.209310 -48.335081   0.031640 -77.094397   0.026316  -3.839620  -3.389783  13.524590  -6.385001  -4.676857   0.556944  25.241257  -0.000161   0.000595 -11.646424  -6.468094  -0.515281  -0.075490  -0.000258  -0.000010  -5.323445   6.794167   3.696802  56.341383   0.016287  -0.000840 -15.446202   7.366694  -1.120278  -1.052199   0.005147   0.003469
 -2.300054   0.896100   4.920446 -173.330200  -9.801128 177.512781   6.337972  -3.205191   0.428959   0.417293  -5.867745   0.920686   0.701864  -0.369971   0.659536   2.514736  -4.349330   4.951091   5.758126   4.380216  45.901962   0.016789  74.165475  -0.014672   0.171848   3.521984  -9.412136  -0.204560  -0.848956  -6.360287 -14.083888  -2.167053 -48.014209   0.029638 -76.893771   0.024491  -3.897213  -3.397162  13.674362  -6.467782  -4.891549   0.619860  25.251783  -0.000123   0.000496 -11.596644  -6.690078  -0.449663  -0.128121  -0.000185  -0.000009  -4.827150   7.235290   3.243994  56.220173   0.012038  -0.000739 -15.480354   7.511058  -1.057837  -0.896667   0.005134   0.003469
